# 3ds Max Wavefront OBJ Exporter v0.97b - (c)2007 guruware
# File Created: 01.04.2019 17:17:32

mtllib Discovery.mtl

#
# object Line001
#

v  -1.2943 0.1092 -1.0585
v  -1.3660 0.1092 -1.0555
v  -1.3740 0.1092 -0.3710
v  -1.3900 0.1092 -0.3408
v  -1.4697 0.1092 -0.3498
v  -1.5229 0.1092 -0.3619
v  -1.5788 0.1092 -0.3589
v  -1.5814 0.1092 -0.1659
v  -1.5788 0.1092 -0.0724
v  -1.1374 0.1092 -0.0905
v  -1.1154 0.1092 -0.0000
v  1.3768 0.1092 0.0000
v  1.3461 0.1092 -0.0393
v  1.2876 0.1092 -0.0845
v  1.1121 0.1092 -0.1418
v  1.0377 0.1092 -0.1719
v  0.8568 0.1092 -0.2111
v  0.6362 0.1092 -0.2383
v  0.4952 0.1092 -0.2503
v  0.2479 0.1092 -0.2926
v  -0.2200 0.1092 -0.3800
v  -0.4886 0.1092 -0.4373
v  -0.7306 0.1092 -0.6634
v  -1.0177 0.1092 -0.9499
v  -1.1188 0.1092 -1.0313
v  1.3461 0.0000 -0.0393
v  1.3768 0.0000 0.0000
v  1.2876 0.0000 -0.0845
v  1.1121 0.0000 -0.1418
v  1.0377 0.0000 -0.1719
v  0.8568 0.0000 -0.2111
v  0.6362 0.0000 -0.2383
v  0.4952 0.0000 -0.2503
v  0.2479 0.0000 -0.2926
v  -0.2200 0.0000 -0.3800
v  -0.4886 0.0000 -0.4373
v  -0.7306 0.0000 -0.6634
v  -1.0177 0.0000 -0.9499
v  -1.1188 0.0000 -1.0313
v  -1.2943 0.0000 -1.0585
v  -1.3660 0.0000 -1.0555
v  -1.3740 0.0000 -0.3710
v  -1.3900 0.0000 -0.3408
v  -1.4697 0.0000 -0.3498
v  -1.5229 0.0000 -0.3619
v  -1.5788 0.0000 -0.3589
v  -1.5814 0.0000 -0.1659
v  -1.5788 0.0000 -0.0724
v  -1.1374 0.0000 -0.0905
v  -1.2943 -0.1092 -1.0585
v  -1.1188 -0.1092 -1.0313
v  -1.0177 -0.1092 -0.9499
v  -0.7306 -0.1092 -0.6634
v  -0.4886 -0.1092 -0.4373
v  -0.2200 -0.1092 -0.3800
v  0.2479 -0.1092 -0.2926
v  0.4952 -0.1092 -0.2503
v  0.6362 -0.1092 -0.2383
v  0.8568 -0.1092 -0.2111
v  1.0377 -0.1092 -0.1719
v  1.1121 -0.1092 -0.1418
v  1.2876 -0.1092 -0.0845
v  1.3461 -0.1092 -0.0393
v  1.3768 -0.1092 0.0000
v  -1.1154 -0.1092 -0.0000
v  -1.1374 -0.1092 -0.0905
v  -1.5788 -0.1092 -0.0724
v  -1.5814 -0.1092 -0.1659
v  -1.5788 -0.1092 -0.3589
v  -1.5229 -0.1092 -0.3619
v  -1.4697 -0.1092 -0.3498
v  -1.3900 -0.1092 -0.3408
v  -1.3740 -0.1092 -0.3710
v  -1.3660 -0.1092 -1.0555
v  -1.1154 0.0000 -0.0000
v  -1.2943 0.1092 1.0585
v  -1.1188 0.1092 1.0313
v  -1.0177 0.1092 0.9499
v  -0.7306 0.1092 0.6634
v  -0.4886 0.1092 0.4373
v  -0.2200 0.1092 0.3800
v  0.2479 0.1092 0.2926
v  0.4952 0.1092 0.2503
v  0.6362 0.1092 0.2383
v  0.8568 0.1092 0.2111
v  1.0377 0.1092 0.1719
v  1.1121 0.1092 0.1418
v  1.2876 0.1092 0.0845
v  1.3461 0.1092 0.0393
v  -1.1374 0.1092 0.0905
v  -1.5788 0.1092 0.0724
v  -1.5814 0.1092 0.1659
v  -1.5788 0.1092 0.3589
v  -1.5229 0.1092 0.3619
v  -1.4697 0.1092 0.3498
v  -1.3900 0.1092 0.3408
v  -1.3740 0.1092 0.3710
v  -1.3660 0.1092 1.0555
v  1.3461 0.0000 0.0393
v  1.2876 0.0000 0.0845
v  1.1121 0.0000 0.1418
v  1.0377 0.0000 0.1719
v  0.8568 0.0000 0.2111
v  0.6362 0.0000 0.2383
v  0.4952 0.0000 0.2503
v  0.2479 0.0000 0.2926
v  -0.2200 0.0000 0.3800
v  -0.4886 0.0000 0.4373
v  -0.7306 0.0000 0.6634
v  -1.0177 0.0000 0.9499
v  -1.1188 0.0000 1.0313
v  -1.2943 0.0000 1.0585
v  -1.3660 0.0000 1.0555
v  -1.3740 0.0000 0.3710
v  -1.3900 0.0000 0.3408
v  -1.4697 0.0000 0.3498
v  -1.5229 0.0000 0.3619
v  -1.5788 0.0000 0.3589
v  -1.5814 0.0000 0.1659
v  -1.5788 0.0000 0.0724
v  -1.1374 0.0000 0.0905
v  -1.2943 -0.1092 1.0585
v  -1.3660 -0.1092 1.0555
v  -1.3740 -0.1092 0.3710
v  -1.3900 -0.1092 0.3408
v  -1.4697 -0.1092 0.3498
v  -1.5229 -0.1092 0.3619
v  -1.5788 -0.1092 0.3589
v  -1.5814 -0.1092 0.1659
v  -1.5788 -0.1092 0.0724
v  -1.1374 -0.1092 0.0905
v  1.3461 -0.1092 0.0393
v  1.2876 -0.1092 0.0845
v  1.1121 -0.1092 0.1418
v  1.0377 -0.1092 0.1719
v  0.8568 -0.1092 0.2111
v  0.6362 -0.1092 0.2383
v  0.4952 -0.1092 0.2503
v  0.2479 -0.1092 0.2926
v  -0.2200 -0.1092 0.3800
v  -0.4886 -0.1092 0.4373
v  -0.7306 -0.1092 0.6634
v  -1.0177 -0.1092 0.9499
v  -1.1188 -0.1092 1.0313
# 144 vertices

vn 0.0357 0.6882 -0.7246
vn -0.5828 0.5800 -0.5691
vn -0.7286 -0.6529 -0.2070
vn -0.3576 -0.6041 -0.7121
vn 0.1062 -0.6963 -0.7099
vn 0.0548 0.6806 -0.7306
vn -0.5847 0.5808 -0.5664
vn -0.7124 0.7018 0.0059
vn -0.5574 0.5771 0.5969
vn -0.4773 -0.5906 0.6507
vn -0.6354 0.7722 -0.0000
vn 0.8118 0.5839 0.0000
vn 0.4842 0.6804 -0.5501
vn 0.3146 0.6731 -0.6693
vn 0.2190 -0.7001 -0.6796
vn 0.1902 0.6902 -0.6982
vn 0.1059 0.6981 -0.7081
vn 0.0651 0.7034 -0.7078
vn 0.0802 -0.6989 -0.7107
vn 0.1104 -0.7055 -0.7000
vn 0.1233 -0.7046 -0.6988
vn 0.3202 -0.6551 -0.6843
vn 0.4608 -0.7035 -0.5411
vn 0.4459 0.6956 -0.5633
vn 0.2772 0.6571 -0.7010
vn 0.6607 -0.0000 -0.7506
vn 1.0000 0.0000 0.0000
vn 0.4254 0.0000 -0.9050
vn 0.3066 -0.0000 -0.9518
vn 0.2628 0.0000 -0.9648
vn 0.1479 0.0000 -0.9890
vn 0.0915 0.0000 -0.9958
vn 0.1121 -0.0000 -0.9937
vn 0.1557 -0.0000 -0.9878
vn 0.1737 -0.0000 -0.9848
vn 0.4238 0.0000 -0.9058
vn 0.6483 0.0000 -0.7614
vn 0.6207 0.0000 -0.7841
vn 0.3678 0.0000 -0.9299
vn 0.0492 0.0000 -0.9988
vn -0.7155 0.0000 -0.6986
vn -0.9619 -0.0000 -0.2733
vn -0.4487 -0.0000 -0.8937
vn 0.1480 0.0000 -0.9890
vn 0.0748 -0.0000 -0.9972
vn -0.7183 0.0000 -0.6957
vn -1.0000 -0.0000 0.0083
vn -0.6825 -0.0000 0.7309
vn -0.5914 -0.0000 0.8064
vn 0.0357 -0.6882 -0.7246
vn 0.2772 -0.6571 -0.7010
vn 0.4459 -0.6956 -0.5633
vn 0.4608 0.7035 -0.5411
vn 0.3202 0.6551 -0.6843
vn 0.1233 0.7046 -0.6988
vn 0.1104 0.7055 -0.7000
vn 0.0802 0.6989 -0.7107
vn 0.0651 -0.7034 -0.7078
vn 0.1059 -0.6981 -0.7081
vn 0.1902 -0.6902 -0.6982
vn 0.2189 0.7002 -0.6796
vn 0.3146 -0.6731 -0.6693
vn 0.4842 -0.6804 -0.5501
vn 0.8118 -0.5839 0.0000
vn -0.6355 -0.7721 -0.0000
vn -0.4772 0.5906 0.6507
vn -0.5574 -0.5771 0.5969
vn -0.7124 -0.7017 0.0059
vn -0.5847 -0.5808 -0.5663
vn 0.0548 -0.6806 -0.7306
vn 0.1062 0.6963 -0.7098
vn -0.3576 0.6042 -0.7121
vn -0.7286 0.6529 -0.2070
vn -0.5828 -0.5800 -0.5691
vn -1.0000 0.0000 -0.0000
vn 0.0357 0.6883 0.7245
vn 0.2773 0.6571 0.7009
vn 0.4459 0.6956 0.5633
vn 0.4608 -0.7035 0.5411
vn 0.3202 -0.6551 0.6843
vn 0.1233 -0.7046 0.6988
vn 0.1104 -0.7055 0.7000
vn 0.0802 -0.6989 0.7107
vn 0.0651 0.7034 0.7078
vn 0.1059 0.6981 0.7081
vn 0.1902 0.6902 0.6982
vn 0.2189 -0.7002 0.6796
vn 0.3146 0.6731 0.6693
vn 0.4842 0.6804 0.5501
vn -0.4773 -0.5906 -0.6507
vn -0.5574 0.5771 -0.5969
vn -0.7124 0.7018 -0.0059
vn -0.5847 0.5808 0.5663
vn 0.0548 0.6807 0.7306
vn 0.1062 -0.6963 0.7098
vn -0.3576 -0.6042 0.7121
vn -0.7286 -0.6529 0.2070
vn -0.5829 0.5801 0.5690
vn 0.6607 -0.0000 0.7506
vn 0.4254 0.0000 0.9050
vn 0.3066 0.0000 0.9518
vn 0.2628 0.0000 0.9648
vn 0.1479 0.0000 0.9890
vn 0.0915 0.0000 0.9958
vn 0.1121 0.0000 0.9937
vn 0.1557 0.0000 0.9878
vn 0.1737 0.0000 0.9848
vn 0.4238 0.0000 0.9058
vn 0.6483 0.0000 0.7614
vn 0.6207 0.0000 0.7841
vn 0.3678 0.0000 0.9299
vn 0.0492 0.0000 0.9988
vn -0.7155 0.0000 0.6986
vn -0.9619 0.0000 0.2733
vn -0.4487 -0.0000 0.8937
vn 0.1480 0.0000 0.9890
vn 0.0748 -0.0000 0.9972
vn -0.7183 0.0000 0.6957
vn -1.0000 0.0000 -0.0083
vn -0.6825 -0.0000 -0.7309
vn -0.5914 -0.0000 -0.8064
vn 0.0357 -0.6883 0.7245
vn -0.5829 -0.5801 0.5690
vn -0.7286 0.6529 0.2070
vn -0.3576 0.6042 0.7121
vn 0.1062 0.6963 0.7098
vn 0.0548 -0.6806 0.7306
vn -0.5847 -0.5808 0.5663
vn -0.7124 -0.7017 -0.0059
vn -0.5574 -0.5771 -0.5969
vn -0.4772 0.5906 -0.6507
vn 0.4842 -0.6804 0.5501
vn 0.3146 -0.6731 0.6693
vn 0.2190 0.7001 0.6797
vn 0.1902 -0.6902 0.6982
vn 0.1059 -0.6981 0.7081
vn 0.0651 -0.7034 0.7078
vn 0.0802 0.6989 0.7107
vn 0.1104 0.7055 0.7000
vn 0.1233 0.7046 0.6988
vn 0.3202 0.6551 0.6843
vn 0.4608 0.7035 0.5411
vn 0.4459 -0.6956 0.5633
vn 0.2772 -0.6571 0.7010
# 144 vertex normals

o Line001
g Line001
usemtl wire_088144225
s 1
f 1//1 2//2 3//3 4//4 5//5 6//6 7//7 8//8 9//9 10//10 11//11 12//12 13//13 14//14 15//15 16//16 17//17 18//18 19//19 20//20 21//21 22//22 23//23 24//24 25//25 
s off
f 26//26 13//13 12//12 27//27 
f 28//28 14//14 13//13 26//26 
f 29//29 15//15 14//14 28//28 
f 30//30 16//16 15//15 29//29 
f 31//31 17//17 16//16 30//30 
f 32//32 18//18 17//17 31//31 
f 33//33 19//19 18//18 32//32 
f 34//34 20//20 19//19 33//33 
f 35//35 21//21 20//20 34//34 
f 36//36 22//22 21//21 35//35 
f 37//37 23//23 22//22 36//36 
f 38//38 24//24 23//23 37//37 
f 39//39 25//25 24//24 38//38 
f 40//40 1//1 25//25 39//39 
f 41//41 2//2 1//1 40//40 
f 42//42 3//3 2//2 41//41 
f 43//43 4//4 3//3 42//42 
f 44//44 5//5 4//4 43//43 
f 45//45 6//6 5//5 44//44 
f 46//46 7//7 6//6 45//45 
f 47//47 8//8 7//7 46//46 
f 48//48 9//9 8//8 47//47 
f 49//49 10//10 9//9 48//48 
s 1
f 50//50 51//51 52//52 53//53 54//54 55//55 56//56 57//57 58//58 59//59 60//60 61//61 62//62 63//63 64//64 65//65 66//66 67//67 68//68 69//69 70//70 71//71 72//72 73//73 74//74 
s off
f 26//26 27//27 64//64 63//63 
f 28//28 26//26 63//63 62//62 
f 29//29 28//28 62//62 61//61 
f 30//30 29//29 61//61 60//60 
f 31//31 30//30 60//60 59//59 
f 32//32 31//31 59//59 58//58 
f 33//33 32//32 58//58 57//57 
f 34//34 33//33 57//57 56//56 
f 35//35 34//34 56//56 55//55 
f 36//36 35//35 55//55 54//54 
f 37//37 36//36 54//54 53//53 
f 38//38 37//37 53//53 52//52 
f 39//39 38//38 52//52 51//51 
f 40//40 39//39 51//51 50//50 
f 41//41 40//40 50//50 74//74 
f 42//42 41//41 74//74 73//73 
f 43//43 42//42 73//73 72//72 
f 44//44 43//43 72//72 71//71 
f 45//45 44//44 71//71 70//70 
f 46//46 45//45 70//70 69//69 
f 47//47 46//46 69//69 68//68 
f 48//48 47//47 68//68 67//67 
f 49//49 48//48 67//67 66//66 
f 11//11 10//10 49//49 75//75 
f 75//75 49//49 66//66 65//65 
s 1
f 76//76 77//77 78//78 79//79 80//80 81//81 82//82 83//83 84//84 85//85 86//86 87//87 88//88 89//89 12//12 11//11 90//90 91//91 92//92 93//93 94//94 95//95 96//96 97//97 98//98 
s off
f 99//99 27//27 12//12 89//89 
f 100//100 99//99 89//89 88//88 
f 101//101 100//100 88//88 87//87 
f 102//102 101//101 87//87 86//86 
f 103//103 102//102 86//86 85//85 
f 104//104 103//103 85//85 84//84 
f 105//105 104//104 84//84 83//83 
f 106//106 105//105 83//83 82//82 
f 107//107 106//106 82//82 81//81 
f 108//108 107//107 81//81 80//80 
f 109//109 108//108 80//80 79//79 
f 110//110 109//109 79//79 78//78 
f 111//111 110//110 78//78 77//77 
f 112//112 111//111 77//77 76//76 
f 113//113 112//112 76//76 98//98 
f 114//114 113//113 98//98 97//97 
f 115//115 114//114 97//97 96//96 
f 116//116 115//115 96//96 95//95 
f 117//117 116//116 95//95 94//94 
f 118//118 117//117 94//94 93//93 
f 119//119 118//118 93//93 92//92 
f 120//120 119//119 92//92 91//91 
f 121//121 120//120 91//91 90//90 
s 1
f 122//122 123//123 124//124 125//125 126//126 127//127 128//128 129//129 130//130 131//131 65//65 64//64 132//132 133//133 134//134 135//135 136//136 137//137 138//138 139//139 140//140 141//141 142//142 143//143 144//144 
s off
f 99//99 132//132 64//64 27//27 
f 100//100 133//133 132//132 99//99 
f 101//101 134//134 133//133 100//100 
f 102//102 135//135 134//134 101//101 
f 103//103 136//136 135//135 102//102 
f 104//104 137//137 136//136 103//103 
f 105//105 138//138 137//137 104//104 
f 106//106 139//139 138//138 105//105 
f 107//107 140//140 139//139 106//106 
f 108//108 141//141 140//140 107//107 
f 109//109 142//142 141//141 108//108 
f 110//110 143//143 142//142 109//109 
f 111//111 144//144 143//143 110//110 
f 112//112 122//122 144//144 111//111 
f 113//113 123//123 122//122 112//112 
f 114//114 124//124 123//123 113//113 
f 115//115 125//125 124//124 114//114 
f 116//116 126//126 125//125 115//115 
f 117//117 127//127 126//126 116//116 
f 118//118 128//128 127//127 117//117 
f 119//119 129//129 128//128 118//118 
f 120//120 130//130 129//129 119//119 
f 121//121 131//131 130//130 120//120 
f 11//11 75//75 121//121 90//90 
f 75//75 65//65 131//131 121//121 
# 100 polygons

